<svg width="16" height="16" fill="none" xmlns="http://www.w3.org/2000/svg"><g clip-path="url(#clip0_215_205)" fill="#CDF360"><path d="M9.337 9.803a2.403 2.403 0 01-2.674 0L.107 5.432A2.383 2.383 0 010 5.356v7.163c0 .82.666 1.473 1.473 1.473h13.054c.821 0 1.473-.667 1.473-1.473V5.356a2.06 2.06 0 01-.107.076l-6.556 4.37z"/><path d="M.627 4.652l6.556 4.37a1.47 1.47 0 001.634 0l6.556-4.37c.393-.262.627-.7.627-1.171 0-.812-.66-1.473-1.472-1.473H1.472C.661 2.008 0 2.668 0 3.482c0 .47.234.908.627 1.17z"/></g><defs><clipPath id="clip0_215_205"><path fill="#fff" d="M0 0h16v16H0z"/></clipPath></defs></svg>