<svg width="25" height="24" fill="none" xmlns="http://www.w3.org/2000/svg"><g clip-path="url(#clip0_183_1164)"><path d="M.968 3c0-1.655 1.345-3 3-3h7.5v6c0 .83.67 1.5 1.5 1.5h6v6.75h-9.75c-1.655 0-3 1.345-3 3V24h-2.25c-1.655 0-3-1.345-3-3V3zm18 3h-6V0l6 6zm-9.75 10.5h1.5a2.627 2.627 0 012.625 2.625 2.627 2.627 0 01-2.625 2.625h-.75v1.5c0 .413-.338.75-.75.75a.752.752 0 01-.75-.75v-6c0-.413.337-.75.75-.75zm1.5 3.75c.623 0 1.125-.502 1.125-1.125S11.34 18 10.718 18h-.75v2.25h.75zm4.5-3.75h1.5a2.25 2.25 0 012.25 2.25v3a2.25 2.25 0 01-2.25 2.25h-1.5a.752.752 0 01-.75-.75v-6c0-.413.337-.75.75-.75zm1.5 6c.412 0 .75-.337.75-.75v-3a.752.752 0 00-.75-.75h-.75v4.5h.75zm3.75-5.25c0-.413.337-.75.75-.75h2.25c.412 0 .75.337.75.75s-.338.75-.75.75h-1.5v1.5h1.5c.412 0 .75.337.75.75s-.338.75-.75.75h-1.5v2.25c0 .413-.338.75-.75.75a.752.752 0 01-.75-.75v-6z" fill="#383C3E"/></g><defs><clipPath id="clip0_183_1164"><path fill="#fff" transform="translate(.968)" d="M0 0h24v24H0z"/></clipPath></defs></svg>