<svg width="16" height="16" fill="none" xmlns="http://www.w3.org/2000/svg"><g clip-path="url(#clip0_303_45)"><path d="M8.553 6.859v2.964h4.119a3.528 3.528 0 01-1.538 2.303l2.484 1.927c1.447-1.336 2.282-3.298 2.282-5.629 0-.542-.049-1.064-.14-1.565H8.554z" fill="#4285F4"/><path d="M4.264 9.707l-.56.429L1.72 11.68c1.26 2.498 3.84 4.223 6.832 4.223 2.066 0 3.799-.681 5.065-1.85l-2.484-1.927c-.682.459-1.551.737-2.581.737-1.99 0-3.68-1.343-4.286-3.152l-.003-.004z" fill="#34A853"/><path d="M1.721 4.82a7.559 7.559 0 00-.82 3.43c0 1.239.298 2.4.82 3.43 0 .007 2.546-1.976 2.546-1.976a4.586 4.586 0 01-.243-1.454c0-.508.09-.995.243-1.454L1.721 4.82z" fill="#FBBC05"/><path d="M8.553 3.644c1.127 0 2.129.39 2.93 1.141l2.19-2.191C12.346 1.356 10.62.597 8.554.597A7.64 7.64 0 001.721 4.82l2.546 1.976c.606-1.809 2.296-3.152 4.286-3.152z" fill="#EA4335"/></g><defs><clipPath id="clip0_303_45"><path fill="#fff" transform="translate(.9 .597)" d="M0 0h15v15.306H0z"/></clipPath></defs></svg>