<svg width="112" height="27" fill="none" xmlns="http://www.w3.org/2000/svg"><rect width="58" height="27" rx="6" fill="#CDF360"/><path d="M18.137 5.582l3.427 9.316 3.711-9.316h3.76L23.645 19H19.62l-3.506-9.023L12.62 19H8.596l-5.4-13.418h3.769l3.633 9.121 3.505-9.121h4.034zM29.95 19V5.582h3.623V19H29.95zm19.107 0l-9.052-9.219V19h-3.623V5.582h3.935l9.063 9.258V5.582h3.603V19h-3.926z" fill="#383C3E"/><path d="M77.535 12.281c0 .86-.094 1.625-.283 2.295a5.774 5.774 0 01-.8 1.738 5.031 5.031 0 01-1.231 1.26 6.261 6.261 0 01-1.592.83 9.84 9.84 0 01-1.895.46 16.07 16.07 0 01-2.119.136H61.1V5.582h8.496c.735 0 1.442.049 2.119.147.677.09 1.308.24 1.894.449a6.38 6.38 0 011.612.83c.481.338.892.758 1.23 1.26.345.494.612 1.074.801 1.738.189.664.283 1.422.283 2.275zm-3.652 0c0-.644-.085-1.204-.254-1.68a2.56 2.56 0 00-.8-1.171c-.365-.313-.844-.544-1.436-.694-.593-.156-1.316-.234-2.168-.234h-4.502v7.578h4.502c.853 0 1.575-.075 2.168-.224.592-.157 1.07-.391 1.435-.704a2.69 2.69 0 00.8-1.191c.17-.475.255-1.035.255-1.68zM79.446 19V5.582H93.03v2.861h-9.864v2.217h9.356v2.861h-9.356v2.618h10V19h-13.72zm19.45 0h-3.624V5.582h9.082c.977 0 1.804.1 2.481.303.683.202 1.237.488 1.66.86.43.37.739.82.928 1.347a4.95 4.95 0 01.293 1.748c0 .566-.082 1.061-.245 1.484a3.379 3.379 0 01-.644 1.094c-.267.3-.579.553-.938.762-.358.208-.735.38-1.132.517L111.151 19h-4.238l-4.063-4.941h-3.955V19zm7.158-9.18c0-.26-.036-.481-.108-.664a.86.86 0 00-.351-.44c-.17-.116-.398-.201-.684-.253a5.923 5.923 0 00-1.055-.078h-4.96v2.87h4.96a5.92 5.92 0 001.055-.077 1.88 1.88 0 00.684-.244.91.91 0 00.351-.45c.072-.182.108-.403.108-.664z" fill="#fff"/></svg>