<svg width="87" height="16" fill="none" xmlns="http://www.w3.org/2000/svg"><path d="M7.961 1.921a.37.37 0 01.705 0l1.23 3.782a.37.37 0 00.352.256h3.976a.37.37 0 01.218.67l-3.217 2.338a.37.37 0 00-.135.414l1.229 3.782a.37.37 0 01-.57.415L8.532 11.24a.37.37 0 00-.436 0l-3.217 2.338a.37.37 0 01-.57-.415l1.228-3.782a.37.37 0 00-.134-.414L2.186 6.63a.37.37 0 01.218-.67H6.38a.37.37 0 00.353-.257L7.96 1.921zm17.793 0a.37.37 0 01.705 0l1.23 3.782a.37.37 0 00.352.256h3.976c.36 0 .508.46.218.67l-3.217 2.338a.37.37 0 00-.135.414l1.23 3.782a.37.37 0 01-.571.415l-3.217-2.338a.37.37 0 00-.436 0l-3.217 2.338a.37.37 0 01-.57-.415l1.229-3.782a.37.37 0 00-.135-.414L19.979 6.63a.37.37 0 01.218-.67h3.976a.37.37 0 00.353-.257l1.228-3.782zm17.793 0a.37.37 0 01.706 0l1.228 3.782a.37.37 0 00.353.256h3.976c.36 0 .508.46.218.67l-3.217 2.338a.37.37 0 00-.135.414l1.23 3.782a.37.37 0 01-.571.415l-3.217-2.338a.37.37 0 00-.436 0l-3.217 2.338a.37.37 0 01-.57-.415l1.229-3.782a.37.37 0 00-.135-.414L37.772 6.63a.37.37 0 01.218-.67h3.976a.37.37 0 00.353-.257l1.228-3.782zm17.793 0a.37.37 0 01.706 0l1.228 3.782a.37.37 0 00.353.256h3.976c.36 0 .509.46.218.67l-3.217 2.338a.37.37 0 00-.134.414l1.228 3.782a.37.37 0 01-.57.415L61.91 11.24a.37.37 0 00-.436 0l-3.217 2.338a.37.37 0 01-.57-.415l1.229-3.782a.37.37 0 00-.135-.414L55.565 6.63a.37.37 0 01.218-.67h3.976a.37.37 0 00.353-.257l1.229-3.782zm17.794 0a.37.37 0 01.705 0l1.228 3.782a.37.37 0 00.353.256h3.976c.36 0 .509.46.218.67l-3.217 2.338a.37.37 0 00-.134.414l1.228 3.782a.37.37 0 01-.57.415l-3.217-2.338a.37.37 0 00-.436 0l-3.216 2.338a.37.37 0 01-.57-.415l1.228-3.782a.37.37 0 00-.135-.414L73.358 6.63a.37.37 0 01.218-.67h3.976a.37.37 0 00.353-.257l1.229-3.782z" fill="#FFC046"/></svg>