<svg width="63" height="63" fill="none" xmlns="http://www.w3.org/2000/svg"><rect width="63" height="63" rx="5" fill="#232323"/><g clip-path="url(#clip0_173_864)" fill="#fff"><path d="M25.81 42.869a2.487 2.487 0 01-1.954-.941l-1.675-2.1-1.473-.71-3.846 7.736a1.25 1.25 0 001.12 1.807h.002l3.568-.008 2.147 2.85a1.25 1.25 0 002.117-.197l3.902-7.848-1.222-.589H25.81zm21.328 3.986l-3.846-7.736-1.473.71-1.675 2.099a2.487 2.487 0 01-1.954.941h-2.686l-1.222.589 3.902 7.849a1.25 1.25 0 002.117.195l2.147-2.85 3.568.009h.003a1.25 1.25 0 001.12-1.806z"/><path d="M38.19 41.62c.38 0 .74-.174.977-.472l1.852-2.322 2.677-1.29a1.25 1.25 0 00.676-.847l.661-2.897 1.853-2.322a1.25 1.25 0 00.24-1.058l-.66-2.896.66-2.896a1.25 1.25 0 00-.24-1.058l-1.853-2.323-.66-2.896a1.25 1.25 0 00-.677-.848l-2.677-1.289-1.852-2.322a1.25 1.25 0 00-.977-.471h-2.971l-2.677-1.29a1.25 1.25 0 00-1.084 0l-2.677 1.29h-2.97c-.381 0-.74.173-.978.47l-1.852 2.323-2.677 1.289a1.25 1.25 0 00-.676.848l-.661 2.896-1.852 2.323a1.25 1.25 0 00-.242 1.057l.661 2.897-.66 2.896c-.085.371.003.76.24 1.058l1.853 2.322.66 2.897c.085.37.335.683.677.848l2.677 1.289 1.852 2.322c.237.298.597.47.977.47h2.971l2.677 1.29a1.25 1.25 0 001.084 0l2.677-1.29h2.97v.001zM32 38.452c-6.03 0-10.938-4.906-10.938-10.937S25.97 16.578 32 16.578c6.031 0 10.938 4.907 10.938 10.938 0 6.03-4.907 10.937-10.938 10.937z"/><path d="M32 17.829c-5.342 0-9.688 4.345-9.688 9.687s4.346 9.688 9.688 9.688c5.342 0 9.688-4.346 9.688-9.688 0-5.342-4.346-9.687-9.688-9.687zm.259 12.555a1.248 1.248 0 01-1.665.092l-3.125-2.5 1.562-1.952 2.251 1.801 3.584-3.584 1.768 1.768-4.375 4.375z"/></g><defs><clipPath id="clip0_173_864"><path fill="#fff" transform="translate(12 12)" d="M0 0h40v40H0z"/></clipPath></defs></svg>