<svg width="63" height="63" fill="none" xmlns="http://www.w3.org/2000/svg"><rect width="63" height="63" rx="5" fill="#232323"/><path d="M46 34.667C46 29.877 42.12 26 37.333 26a8.664 8.664 0 00-8.665 8.667 2 2 0 00-2 2v6.666a2 2 0 002 2h4a.666.666 0 00.665-.666V40c0-.733-.267-1.87-.595-2.526l-1.403-2.807a6 6 0 1111.999 0l-1.404 2.807c-.328.656-.596 1.793-.596 2.526v4.82a7.368 7.368 0 01-4 1.18H36v2h1.333a9.393 9.393 0 006.563-2.667H46a2 2 0 002-2v-6.666a2 2 0 00-2-2z" fill="#fff"/><path d="M37.333 24c.453 0 .896.038 1.334.092v-5.425A2.675 2.675 0 0036 16H18.667A2.675 2.675 0 0016 18.667v8c0 1.466 1.2 2.667 2.667 2.667v4l6.667-4h2.778C29.959 26.15 33.396 24 37.333 24zM32 21.333A1.332 1.332 0 1132 24a1.333 1.333 0 010-2.667zM22.667 24a1.333 1.333 0 110-2.667 1.333 1.333 0 010 2.667zM26 22.667a1.333 1.333 0 112.667 0 1.333 1.333 0 01-2.667 0z" fill="#fff"/></svg>